# xmcd CD database file
#
# Track frame offsets:
#	150
#	33755
#	56552
#	81620
#	118910
#	130112
#	150757
#	197512
#	235240
#	268812
#	289222
#
# Disc length: 4222 seconds
#
# Revision: 0
# Processed by: cddbd v1.5.2PL0 Copyright (c) Steve Scherf et al.
# Submitted via: CDex 1.70beta2
#
DISCID=96107c0b
DTITLE=Giger, Peter - Family of Persussion
DYEAR=1986
DGENRE=Jazz
TTITLE0=here comes the family
TTITLE1=amadillo
TTITLE2=trans tanz
TTITLE3=gospel to music
TTITLE4=spies
TTITLE5=patanaxi
TTITLE6=under the volcano
TTITLE7=mysterioso
TTITLE8=simmons blues
TTITLE9=marcutu for nana
TTITLE10=message to the enemies of time
EXTD=YEAR: 1986
EXTT0=
EXTT1=
EXTT2=
EXTT3=
EXTT4=
EXTT5=
EXTT6=
EXTT7=
EXTT8=
EXTT9=
EXTT10=
PLAYORDER=
